<svg width="73" height="15" viewBox="0 0 73 15" fill="none" xmlns="http://www.w3.org/2000/svg">
<g opacity="0.6">
<path d="M3.42628 0.555943C3.76595 0.428059 4.14932 0.524021 4.38869 0.796846L7.50614 4.35005H16.8137L19.9312 0.796846C20.1705 0.524021 20.5539 0.428059 20.8936 0.555943C21.2332 0.683827 21.4581 1.00879 21.4581 1.37174V9.21704H24.2185V10.9604H19.7147V3.68703L17.8638 5.79664C17.6983 5.98529 17.4595 6.09345 17.2086 6.09345H7.11129C6.86033 6.09345 6.62154 5.98529 6.45603 5.79664L4.60513 3.68703V10.9604H0.101318V9.21704H2.86172V1.37174C2.86172 1.00879 3.08661 0.683827 3.42628 0.555943Z" fill="currentColor"/>
<path d="M19.7147 12.7038H24.2185V14.4472H19.7147V12.7038Z" fill="currentColor"/>
<path d="M0.101318 12.7038H4.60513V14.4472H0.101318V12.7038Z" fill="currentColor"/>
<path d="M9.39952 9.79818C9.39952 10.4401 8.87915 10.9604 8.23724 10.9604C7.59534 10.9604 7.07497 10.4401 7.07497 9.79818C7.07497 9.15628 7.59534 8.63591 8.23724 8.63591C8.87915 8.63591 9.39952 9.15628 9.39952 9.79818Z" fill="currentColor"/>
<path d="M17.2449 9.79818C17.2449 10.4401 16.7245 10.9604 16.0826 10.9604C15.4407 10.9604 14.9203 10.4401 14.9203 9.79818C14.9203 9.15628 15.4407 8.63591 16.0826 8.63591C16.7245 8.63591 17.2449 9.15628 17.2449 9.79818Z" fill="currentColor"/>
<path d="M31.9023 12.1227V3.6698H34.9153C35.573 3.6698 36.1178 3.7895 36.5498 4.02889C36.9818 4.26827 37.3051 4.59571 37.5197 5.0112C37.7344 5.42394 37.8417 5.88895 37.8417 6.40625C37.8417 6.9263 37.733 7.39407 37.5156 7.80956C37.301 8.22229 36.9763 8.54973 36.5415 8.79187C36.1095 9.03126 35.5661 9.15095 34.9112 9.15095H32.8393V8.06958H34.7956C35.2111 8.06958 35.5482 7.99804 35.8069 7.85496C36.0655 7.70912 36.2554 7.51101 36.3764 7.26062C36.4975 7.01022 36.558 6.72543 36.558 6.40625C36.558 6.08707 36.4975 5.80365 36.3764 5.55601C36.2554 5.30837 36.0641 5.11438 35.8027 4.97405C35.5441 4.83372 35.2029 4.76356 34.7791 4.76356H33.1777V12.1227H31.9023Z" fill="currentColor"/>
<path d="M39.2378 12.1227V5.78302H40.4719V12.1227H39.2378ZM39.861 4.80483C39.6464 4.80483 39.462 4.73329 39.3079 4.59021C39.1566 4.44437 39.0809 4.27102 39.0809 4.07016C39.0809 3.86654 39.1566 3.69319 39.3079 3.55011C39.462 3.40428 39.6464 3.33136 39.861 3.33136C40.0756 3.33136 40.2586 3.40428 40.4099 3.55011C40.564 3.69319 40.6411 3.86654 40.6411 4.07016C40.6411 4.27102 40.564 4.44437 40.4099 4.59021C40.2586 4.73329 40.0756 4.80483 39.861 4.80483Z" fill="currentColor"/>
<path d="M42.1321 14.5V5.78302H43.3373V6.81073H43.4405C43.512 6.67866 43.6152 6.52594 43.75 6.3526C43.8849 6.17925 44.072 6.02791 44.3114 5.89858C44.5508 5.76651 44.8672 5.70047 45.2607 5.70047C45.7725 5.70047 46.2292 5.8298 46.631 6.08844C47.0327 6.34709 47.3477 6.71993 47.5761 7.20696C47.8073 7.69399 47.9228 8.28008 47.9228 8.96522C47.9228 9.65036 47.8086 10.2378 47.5803 10.7276C47.3519 11.2146 47.0382 11.5902 46.6392 11.8544C46.2402 12.1158 45.7848 12.2465 45.273 12.2465C44.8878 12.2465 44.5728 12.1818 44.3279 12.0525C44.0857 11.9232 43.8959 11.7718 43.7583 11.5985C43.6207 11.4251 43.5148 11.271 43.4405 11.1362H43.3662V14.5H42.1321ZM43.3414 8.95284C43.3414 9.39859 43.4061 9.78932 43.5354 10.125C43.6647 10.4607 43.8518 10.7235 44.0967 10.9133C44.3416 11.1004 44.6416 11.194 44.9965 11.194C45.3652 11.194 45.6734 11.0963 45.921 10.901C46.1687 10.7028 46.3558 10.4346 46.4824 10.0961C46.6117 9.75768 46.6764 9.37658 46.6764 8.95284C46.6764 8.5346 46.6131 8.15901 46.4865 7.82607C46.3627 7.49312 46.1756 7.23035 45.9252 7.03774C45.6775 6.84513 45.368 6.74882 44.9965 6.74882C44.6388 6.74882 44.3361 6.841 44.0885 7.02536C43.8436 7.20971 43.6579 7.46698 43.5313 7.79717C43.4047 8.12736 43.3414 8.51259 43.3414 8.95284Z" fill="currentColor"/>
<path d="M52.0378 12.2506C51.4132 12.2506 50.8753 12.1172 50.424 11.8503C49.9755 11.5806 49.6288 11.2023 49.3839 10.7152C49.1418 10.2254 49.0207 9.65174 49.0207 8.99411C49.0207 8.34474 49.1418 7.77241 49.3839 7.27713C49.6288 6.78184 49.97 6.39524 50.4075 6.11733C50.8478 5.83943 51.3623 5.70047 51.9512 5.70047C52.3089 5.70047 52.6556 5.75963 52.9913 5.87795C53.327 5.99627 53.6283 6.182 53.8952 6.43514C54.1621 6.68829 54.3726 7.0171 54.5267 7.42158C54.6808 7.82331 54.7578 8.31172 54.7578 8.8868V9.3243H49.7183V8.39977H53.5485C53.5485 8.07508 53.4824 7.78754 53.3504 7.53715C53.2183 7.284 53.0326 7.08452 52.7932 6.93868C52.5565 6.79285 52.2786 6.71993 51.9594 6.71993C51.6127 6.71993 51.3101 6.80523 51.0514 6.97583C50.7955 7.14367 50.5974 7.3638 50.4571 7.63621C50.3195 7.90586 50.2507 8.19891 50.2507 8.51534V9.23763C50.2507 9.66137 50.325 10.0218 50.4736 10.319C50.6249 10.6162 50.8354 10.8432 51.1051 11C51.3747 11.1541 51.6898 11.2311 52.0502 11.2311C52.2841 11.2311 52.4974 11.1981 52.69 11.1321C52.8826 11.0633 53.0491 10.9615 53.1894 10.8267C53.3297 10.6918 53.437 10.5254 53.5113 10.3273L54.6794 10.5377C54.5858 10.8817 54.418 11.183 54.1758 11.4416C53.9365 11.6975 53.6352 11.897 53.2719 12.0401C52.9115 12.1804 52.5001 12.2506 52.0378 12.2506Z" fill="currentColor"/>
<path d="M58.7975 12.2506C58.1839 12.2506 57.6556 12.1117 57.2126 11.8337C56.7723 11.5531 56.4339 11.1665 56.1972 10.674C55.9606 10.1814 55.8423 9.61734 55.8423 8.98173C55.8423 8.33786 55.9633 7.76966 56.2055 7.27713C56.4476 6.78184 56.7888 6.39524 57.2291 6.11733C57.6693 5.83943 58.188 5.70047 58.7851 5.70047C59.2666 5.70047 59.6959 5.7899 60.0729 5.96875C60.4498 6.14485 60.7539 6.39249 60.985 6.71168C61.2189 7.03086 61.3579 7.4037 61.4019 7.83019H60.2008C60.1348 7.53302 59.9834 7.27713 59.7468 7.0625C59.5129 6.84788 59.1992 6.74057 58.8057 6.74057C58.4618 6.74057 58.1605 6.83137 57.9018 7.01297C57.6459 7.19183 57.4465 7.44772 57.3034 7.78066C57.1603 8.11085 57.0887 8.50158 57.0887 8.95284C57.0887 9.4151 57.1589 9.81408 57.2992 10.1498C57.4396 10.4855 57.6377 10.7455 57.8936 10.9298C58.1522 11.1142 58.4563 11.2064 58.8057 11.2064C59.0396 11.2064 59.2515 11.1637 59.4414 11.0784C59.634 10.9904 59.7949 10.8652 59.9243 10.7028C60.0563 10.5405 60.1485 10.3451 60.2008 10.1168H61.4019C61.3579 10.5267 61.2244 10.8927 61.0015 11.2146C60.7786 11.5366 60.4801 11.7897 60.1059 11.9741C59.7344 12.1584 59.2983 12.2506 58.7975 12.2506Z" fill="currentColor"/>
<path d="M64.5666 12.263C64.1648 12.263 63.8016 12.1887 63.4769 12.0401C63.1522 11.8888 62.895 11.67 62.7051 11.3839C62.518 11.0977 62.4244 10.7469 62.4244 10.3314C62.4244 9.97367 62.4932 9.67926 62.6308 9.44812C62.7684 9.21699 62.9541 9.03401 63.188 8.89918C63.4219 8.76435 63.6833 8.66255 63.9722 8.59376C64.2611 8.52497 64.5556 8.47269 64.8555 8.43692C65.2352 8.39289 65.5434 8.35712 65.78 8.32961C66.0167 8.29934 66.1886 8.25119 66.2959 8.18515C66.4033 8.11911 66.4569 8.0118 66.4569 7.86321V7.83432C66.4569 7.47386 66.3551 7.19458 66.1515 6.99646C65.9506 6.79835 65.6507 6.69929 65.2517 6.69929C64.8362 6.69929 64.5088 6.79147 64.2694 6.97583C64.0327 7.15743 63.869 7.35967 63.7782 7.58255L62.6184 7.3184C62.756 6.93318 62.9569 6.62225 63.221 6.38561C63.4879 6.14623 63.7947 5.97288 64.1414 5.86556C64.4881 5.7555 64.8527 5.70047 65.2352 5.70047C65.4883 5.70047 65.7566 5.73074 66.04 5.79127C66.3262 5.84906 66.5931 5.95637 66.8408 6.11321C67.0912 6.27005 67.2961 6.4943 67.4557 6.78597C67.6153 7.07488 67.6951 7.45048 67.6951 7.91274V12.1227H66.4899V11.2559H66.4404C66.3606 11.4155 66.2409 11.5723 66.0813 11.7264C65.9217 11.8805 65.7167 12.0085 65.4663 12.1103C65.2159 12.2121 64.916 12.263 64.5666 12.263ZM64.8348 11.2724C65.176 11.2724 65.4677 11.205 65.7098 11.0702C65.9547 10.9354 66.1405 10.7593 66.267 10.5419C66.3964 10.3217 66.461 10.0865 66.461 9.8361V9.01888C66.417 9.0629 66.3317 9.10417 66.2051 9.1427C66.0813 9.17847 65.9396 9.21011 65.78 9.23763C65.6204 9.26239 65.465 9.28578 65.3136 9.30779C65.1623 9.32705 65.0357 9.34356 64.9339 9.35732C64.6945 9.38759 64.4758 9.43849 64.2776 9.51003C64.0823 9.58157 63.9254 9.68476 63.8071 9.81959C63.6916 9.95166 63.6338 10.1278 63.6338 10.3479C63.6338 10.6533 63.7466 10.8844 63.9722 11.0413C64.1978 11.1954 64.4854 11.2724 64.8348 11.2724Z" fill="currentColor"/>
<path d="M72.2982 5.78302V6.77359H68.8353V5.78302H72.2982ZM69.764 4.26415H70.9981V10.2612C70.9981 10.5006 71.0338 10.6808 71.1054 10.8019C71.1769 10.9202 71.2691 11.0014 71.3819 11.0454C71.4975 11.0867 71.6227 11.1073 71.7575 11.1073C71.8566 11.1073 71.9432 11.1004 72.0175 11.0867C72.0918 11.0729 72.1496 11.0619 72.1909 11.0537L72.4138 12.0731C72.3422 12.1006 72.2404 12.1282 72.1083 12.1557C71.9763 12.1859 71.8112 12.2025 71.6131 12.2052C71.2884 12.2107 70.9857 12.1529 70.705 12.0319C70.4244 11.9108 70.1974 11.7237 70.024 11.4705C69.8507 11.2174 69.764 10.8996 69.764 10.5171V4.26415Z" fill="currentColor"/>
</g>
</svg>
